<mxfile host="Electron" modified="2024-06-17T12:33:16.563Z" agent="Mozilla/5.0 (Windows NT 10.0; Win64; x64) AppleWebKit/537.36 (KHTML, like Gecko) draw.io/24.5.3 Chrome/124.0.6367.207 Electron/30.0.6 Safari/537.36" etag="m1mH6NeBcOIAmjAo-izi" version="24.5.3" type="device">
  <diagram name="Classes" id="e0QzVjx_0hGOevQhnhoC">
    <mxGraphModel dx="1434" dy="844" grid="1" gridSize="10" guides="1" tooltips="1" connect="1" arrows="1" fold="1" page="1" pageScale="1" pageWidth="827" pageHeight="1169" math="0" shadow="0">
      <root>
        <mxCell id="0" />
        <mxCell id="1" parent="0" />
        <mxCell id="UCcGfyrdHr4ekLi58IRu-1" value="InputController &lt;&lt; Mono &gt;&gt;" style="swimlane;fontStyle=1;align=center;verticalAlign=top;childLayout=stackLayout;horizontal=1;startSize=26;horizontalStack=0;resizeParent=1;resizeParentMax=0;resizeLast=0;collapsible=1;marginBottom=0;" vertex="1" parent="1">
          <mxGeometry x="70" y="300" width="240" height="150" as="geometry" />
        </mxCell>
        <mxCell id="UCcGfyrdHr4ekLi58IRu-2" value="+ UnityEvent&lt;InputAction&gt; : ButtonClicked&#xa;+ UnityEvent&lt;Vector2&gt; : LeftClick&#xa;+ UnityEvent&lt;Vector2&gt; : RightClick&#xa;" style="text;strokeColor=none;fillColor=none;align=left;verticalAlign=top;spacingLeft=4;spacingRight=4;overflow=hidden;rotatable=0;points=[[0,0.5],[1,0.5]];portConstraint=eastwest;" vertex="1" parent="UCcGfyrdHr4ekLi58IRu-1">
          <mxGeometry y="26" width="240" height="64" as="geometry" />
        </mxCell>
        <mxCell id="UCcGfyrdHr4ekLi58IRu-3" value="" style="line;strokeWidth=1;fillColor=none;align=left;verticalAlign=middle;spacingTop=-1;spacingLeft=3;spacingRight=3;rotatable=0;labelPosition=right;points=[];portConstraint=eastwest;strokeColor=inherit;" vertex="1" parent="UCcGfyrdHr4ekLi58IRu-1">
          <mxGeometry y="90" width="240" height="8" as="geometry" />
        </mxCell>
        <mxCell id="UCcGfyrdHr4ekLi58IRu-4" value="+ HandleAxes(void) : void&#xa;+ HandleButtons(void) : void&#xa;+ HandleClicks(void) : void&#xa;" style="text;strokeColor=none;fillColor=none;align=left;verticalAlign=top;spacingLeft=4;spacingRight=4;overflow=hidden;rotatable=0;points=[[0,0.5],[1,0.5]];portConstraint=eastwest;" vertex="1" parent="UCcGfyrdHr4ekLi58IRu-1">
          <mxGeometry y="98" width="240" height="52" as="geometry" />
        </mxCell>
        <mxCell id="UCcGfyrdHr4ekLi58IRu-5" value="enum InputAction&lt;br&gt;&lt;br&gt;MoveLeft&lt;br&gt;MoveRight&lt;br&gt;MoveUp&lt;br&gt;MoveDown&lt;br&gt;Select&lt;br&gt;Cancel" style="html=1;" vertex="1" parent="1">
          <mxGeometry x="70" y="100" width="110" height="140" as="geometry" />
        </mxCell>
      </root>
    </mxGraphModel>
  </diagram>
</mxfile>
